<?xml version="1.0" standalone="no"?>
<svg xmlns:xlink="http://www.w3.org/1999/xlink" id="wave" style="transform:rotate(0deg); transition: 0.3s" viewBox="0 0 1440 490" version="1.1" xmlns="http://www.w3.org/2000/svg"><defs><linearGradient id="sw-gradient-0" x1="0" x2="0" y1="1" y2="0"><stop stop-color="rgba(255, 148, 16, 1)" offset="0%"/><stop stop-color="rgba(255, 145, 0, 1)" offset="100%"/></linearGradient></defs><path style="transform:translate(0, 0px); opacity:1" fill="url(#sw-gradient-0)" d="M0,294L60,269.5C120,245,240,196,360,204.2C480,212,600,278,720,253.2C840,229,960,114,1080,98C1200,82,1320,163,1440,204.2C1560,245,1680,245,1800,204.2C1920,163,2040,82,2160,106.2C2280,131,2400,261,2520,269.5C2640,278,2760,163,2880,122.5C3000,82,3120,114,3240,147C3360,180,3480,212,3600,187.8C3720,163,3840,82,3960,114.3C4080,147,4200,294,4320,294C4440,294,4560,147,4680,122.5C4800,98,4920,196,5040,196C5160,196,5280,98,5400,57.2C5520,16,5640,33,5760,57.2C5880,82,6000,114,6120,106.2C6240,98,6360,49,6480,49C6600,49,6720,98,6840,171.5C6960,245,7080,343,7200,367.5C7320,392,7440,343,7560,294C7680,245,7800,196,7920,163.3C8040,131,8160,114,8280,163.3C8400,212,8520,327,8580,383.8L8640,441L8640,490L8580,490C8520,490,8400,490,8280,490C8160,490,8040,490,7920,490C7800,490,7680,490,7560,490C7440,490,7320,490,7200,490C7080,490,6960,490,6840,490C6720,490,6600,490,6480,490C6360,490,6240,490,6120,490C6000,490,5880,490,5760,490C5640,490,5520,490,5400,490C5280,490,5160,490,5040,490C4920,490,4800,490,4680,490C4560,490,4440,490,4320,490C4200,490,4080,490,3960,490C3840,490,3720,490,3600,490C3480,490,3360,490,3240,490C3120,490,3000,490,2880,490C2760,490,2640,490,2520,490C2400,490,2280,490,2160,490C2040,490,1920,490,1800,490C1680,490,1560,490,1440,490C1320,490,1200,490,1080,490C960,490,840,490,720,490C600,490,480,490,360,490C240,490,120,490,60,490L0,490Z"/></svg>