<svg id="visual" viewBox="0 0 1440 466" width="1440" height="466" xmlns="http://www.w3.org/2000/svg" xmlns:xlink="http://www.w3.org/1999/xlink" version="1.1"><path d="M0 220L40 219.3C80 218.7 160 217.3 240 220C320 222.7 400 229.3 480 245.2C560 261 640 286 720 303.3C800 320.7 880 330.3 960 337.5C1040 344.7 1120 349.3 1200 342.3C1280 335.3 1360 316.7 1400 307.3L1440 298L1440 467L1400 467C1360 467 1280 467 1200 467C1120 467 1040 467 960 467C880 467 800 467 720 467C640 467 560 467 480 467C400 467 320 467 240 467C160 467 80 467 40 467L0 467Z" fill="#FFFFFF" stroke-linecap="round" stroke-linejoin="miter"></path></svg>