<svg xmlns="http://www.w3.org/2000/svg" viewBox="0 0 98.46 98.46"><defs><style>.cls-1{fill:#6c9381;}.cls-2{fill:#fff;}</style></defs><g id="Layer_1" data-name="Layer 1"><circle class="cls-1" cx="49.23" cy="49.23" r="49.23"/><path class="cls-2" d="M59.4,23.17H33.16A3.19,3.19,0,0,0,30,26.36V72.1a3.19,3.19,0,0,0,3.19,3.19H65.3a3.2,3.2,0,0,0,3.2-3.19v-39ZM60.15,28l4,4.34h-4ZM65.81,72.1a.51.51,0,0,1-.51.51H33.16a.51.51,0,0,1-.51-.51V26.36a.51.51,0,0,1,.51-.51H57.47v7.78A1.34,1.34,0,0,0,58.81,35h7ZM37.39,37.45H60.18a1,1,0,1,1,0,2H37.39a1,1,0,1,1,0-2Zm23.8,7.76a1,1,0,0,1-1,1H37.39a1,1,0,0,1,0-2H60.18a1,1,0,0,1,1,1Zm0,6.54a1,1,0,0,1-1,1H37.39a1,1,0,1,1,0-2H60.18a1,1,0,0,1,1,1Zm0,6.64a1,1,0,0,1-1,1H37.39a1,1,0,1,1,0-2H60.18a1,1,0,0,1,1,1Zm0,0"/></g></svg>