<svg xmlns="http://www.w3.org/2000/svg" viewBox="0 0 98.46 98.46"><g data-name="Layer 1"><circle cx="49.23" cy="49.23" r="49.23" style="fill:#6c9381"/><path d="M59.4 23.17H33.16A3.19 3.19 0 0 0 30 26.36V72.1a3.19 3.19 0 0 0 3.19 3.19H65.3a3.2 3.2 0 0 0 3.2-3.19v-39Zm.75 4.83 4 4.34h-4Zm5.66 44.1a.51.51 0 0 1-.51.51H33.16a.51.51 0 0 1-.51-.51V26.36a.51.51 0 0 1 .51-.51h24.31v7.78A1.34 1.34 0 0 0 58.81 35h7ZM37.39 37.45h22.79a1 1 0 1 1 0 2H37.39a1 1 0 1 1 0-2Zm23.8 7.76a1 1 0 0 1-1 1h-22.8a1 1 0 0 1 0-2h22.79a1 1 0 0 1 1 1Zm0 6.54a1 1 0 0 1-1 1h-22.8a1 1 0 1 1 0-2h22.79a1 1 0 0 1 1 1Zm0 6.64a1 1 0 0 1-1 1h-22.8a1 1 0 1 1 0-2h22.79a1 1 0 0 1 1 1Zm0 0" style="fill:#fff"/></g></svg>