<svg xmlns="http://www.w3.org/2000/svg" viewBox="0 0 98.46 98.46"><defs><style>.cls-1{fill:#82c2bd;}.cls-2{fill:#f9f9fa;}</style></defs><g id="Layer_1" data-name="Layer 1"><circle class="cls-1" cx="49.23" cy="49.23" r="49.23"/><path class="cls-2" d="M76,69.88c-.17-.29-.41-.76-.74-1.41l-2.09-4.12V53.13a1.09,1.09,0,0,0-.27-.74.94.94,0,0,0-.71-.31H55.79a1,1,0,0,0-1,1.05v5.52H51V46.32h9.44c1.31,0,1.54-.88.68-2.64a15,15,0,0,0-.74-1.41l-2-4.11V26.93a1.06,1.06,0,0,0-1-1H41a.89.89,0,0,0-.71.31,1.07,1.07,0,0,0-.28.73V38.16l-2.08,4.11-.19.37c-.2.45-.35.77-.46,1s-.22.49-.36.86a2.38,2.38,0,0,0-.22.82,1.82,1.82,0,0,0,.09.56.69.69,0,0,0,.43.4,2.05,2.05,0,0,0,.89.06h9.27V58.65H43.71V53.13a1.1,1.1,0,0,0-.28-.74.92.92,0,0,0-.71-.31H26.34a1,1,0,0,0-.73.31,1,1,0,0,0-.31.74V64.35l-2,4.12c0,.08-.13.22-.25.42-.2.41-.36.73-.46,1l-.37.86a2.41,2.41,0,0,0-.21.8,2,2,0,0,0,.09.58.55.55,0,0,0,.43.4,3.47,3.47,0,0,0,.89.1H45.79q2,0,.74-2.7c-.17-.29-.41-.76-.74-1.41l-2.08-4.12v-2h11v2l-2,4.12q-.06.12-.24.42c-.21.41-.36.73-.46,1s-.23.51-.37.85a2.41,2.41,0,0,0-.21.8,2,2,0,0,0,.09.58.55.55,0,0,0,.43.4,3.07,3.07,0,0,0,.89.1H75.24c1.35,0,1.59-.9.74-2.7ZM40.7,62.33H28.31V55H40.7Zm2.21-26.2V28.77H55.36v7.36Zm27.24,26.2H57.75V55h12.4Zm0,0"/></g></svg>