<svg xmlns="http://www.w3.org/2000/svg" viewBox="0 0 98.46 98.46"><defs><style>.cls-1{fill:#df902e;}.cls-2{fill:#f9f9fa;}</style></defs><g id="Layer_1" data-name="Layer 1"><circle class="cls-1" cx="49.23" cy="49.23" r="49.23"/><path class="cls-2" d="M28.43,57.29,31.2,46.22a1.39,1.39,0,0,1,2.58-.28h0l2,4a1.38,1.38,0,0,0,1.24.77h3.82a1.38,1.38,0,0,1,0,2.76H35.31a1.38,1.38,0,0,1-1.24-.76A1.38,1.38,0,1,0,31.6,54a4.12,4.12,0,0,0,3.71,2.29h5.53a1.37,1.37,0,0,1,1.34,1L45,68.35a1.4,1.4,0,0,1-1,1.68,1.37,1.37,0,0,1-1.67-1l-2.25-9a1.37,1.37,0,0,0-1.34-1h-8.9a1.4,1.4,0,0,1-1.35-1.72Zm5.49-20.42a2.77,2.77,0,1,1-2.76,2.77,2.78,2.78,0,0,1,2.76-2.77ZM30.16,64.54l.69-2.77H37.6l.69,2.77Zm-2.07-3.12-2.42,9.7a1.38,1.38,0,1,0,2.68.67l1.12-4.49H39l.6,2.4a4.15,4.15,0,0,0,8.05-2L44.87,56.62a4.15,4.15,0,0,0-.94-1.77A4.1,4.1,0,0,0,45,52.09a4.15,4.15,0,0,0-4.15-4.15h-3L36.25,44.7v0a5.54,5.54,0,1,0-6.38-1.28,4.12,4.12,0,0,0-1.34,2.16L25.75,56.62a4.14,4.14,0,0,0,.75,3.56,4.35,4.35,0,0,0,1.59,1.24Z"/><path class="cls-2" d="M68.69,59H59.78a1.39,1.39,0,0,0-1.34,1L56.2,69a1.38,1.38,0,1,1-2.68-.67l2.76-11.06a1.39,1.39,0,0,1,1.34-1h5.54A4.13,4.13,0,0,0,66.87,54a1.39,1.39,0,1,0-2.48-1.24,1.37,1.37,0,0,1-1.23.76H57.62a1.38,1.38,0,0,1,0-2.76h3.83a1.37,1.37,0,0,0,1.23-.77l2-4a1.38,1.38,0,0,1,2.57.28L70,57.29A1.38,1.38,0,0,1,68.69,59Zm-8.52,5.53.69-2.77h6.75l.69,2.77Zm1.6-24.9a2.77,2.77,0,1,1,2.77,2.77,2.78,2.78,0,0,1-2.77-2.77Zm10.95,17L70,45.55a4.13,4.13,0,0,0-1.35-2.16,5.52,5.52,0,1,0-6.37,1.28l0,0-1.62,3.24h-3a4.16,4.16,0,0,0-4.15,4.15,4.1,4.1,0,0,0,1.06,2.76,4.13,4.13,0,0,0-.93,1.77L50.83,67.68a4.15,4.15,0,0,0,8.05,2l.6-2.39H69l1.12,4.49a1.39,1.39,0,1,0,2.69-.67l-2.43-9.7a4.15,4.15,0,0,0,2.35-4.8Z"/><path class="cls-2" d="M53.47,35.49v2.23L50.2,34.51a1.37,1.37,0,0,0-1-.4H43.61a1.39,1.39,0,0,1-1.39-1.39V29.77a1.38,1.38,0,0,1,1.39-1.38H54.86a1.38,1.38,0,0,1,1.38,1.38v2.95a1.38,1.38,0,0,1-1.38,1.39,1.38,1.38,0,0,0-1.39,1.38Zm1.92,6.81A1.38,1.38,0,0,0,56.24,41V36.64A4.16,4.16,0,0,0,59,32.72V29.77a4.16,4.16,0,0,0-4.15-4.15H43.61a4.16,4.16,0,0,0-4.15,4.15v2.95a4.15,4.15,0,0,0,4.15,4.15h5.06L53.89,42a1.39,1.39,0,0,0,1.5.29Z"/></g></svg>