<svg xmlns="http://www.w3.org/2000/svg" viewBox="0 0 98.46 98.46"><defs><style>.cls-1{fill:#4f8abe;}.cls-2{fill:#f9f9fa;}</style></defs><g id="Layer_1" data-name="Layer 1"><circle class="cls-1" cx="49.23" cy="49.23" r="49.23"/><path class="cls-2" d="M68.69,41.81A17.57,17.57,0,0,1,54.4,27.52c3.52-2.21,8.64-1.43,12.18,2.11s4.32,8.65,2.11,12.18Zm-2.43,2.43A20.29,20.29,0,0,1,52,30c-2.2,3.53-1.42,8.64,2.12,12.18s8.65,4.32,12.18,2.11Zm-14,15.68c-4.4,0-7.55,2.75-10.32,5.18-3.07,2.68-5.73,5-9.64,3.8-.77-.57-.8-1-.8-1.19-.06-1.06,1.23-2.48,1.85-3a1.3,1.3,0,0,0,.19-.22,2.91,2.91,0,0,0,3-.68l20-16.49A14.3,14.3,0,0,1,52,44.21a14.52,14.52,0,0,1-3.1-4.61l-16.49,20a2.93,2.93,0,0,0-.75,2.7.64.64,0,0,0-.18.1c-.32.26-3.07,2.6-2.94,5.41a4.57,4.57,0,0,0,2.27,3.62l.35.17a10,10,0,0,0,3.22.55c3.92,0,6.84-2.55,9.49-4.86s5.09-4.45,8.38-4.45c7.59,0,13.47,8.14,13.53,8.22a1.47,1.47,0,0,0,2.4-1.71c-.27-.38-6.8-9.46-15.93-9.46Zm0,0"/></g></svg>